# xmcd
#
# Track frame offsets: 
#        150
#        14068
#        33257
#        51783
#        71839
#        89120
#        107385
#        121971
#        142484
#        154115
#        158651
#        173572
#        193538
#        210587
#        227566
#        249690
#
# Disc length: 3501 seconds
#
# Revision: 0
# Processed by: cddbd v1.5.2PL0 Copyright (c) Steve Scherf et al.
# Submitted via: ExactAudioCopyFreeDBPlugin 1.0
#
DISCID=df0dab10
DTITLE=Kool Savas - John Bello Story 3
DYEAR=2010
DGENRE=Hip-Hop
TTITLE0=Denn ein Bello kommt selten allein
TTITLE1=Immer wenn ich rhyme feat. Olli Banjo, Azad and Moe Mitchell
TTITLE2=Mach doch deinen Scheiss feat. MoTrip, Olli Banjo, Franky Kubr
TTITLE2=ick and Kaas
TTITLE3=Myspace feat. Olli Banjo, MoTrip and Moe Mitchell
TTITLE4=Sei nicht schüchtern feat. Sinan and Ercandize
TTITLE5=Booyaka Shot feat. Caput
TTITLE6=Weg nach draussen
TTITLE7=Orchestrator feat. Ercandize
TTITLE8=Merk dir meinen Namen feat. Franky Kubrick, Olli Banjo, MoTrip
TTITLE8=and Moe Mitchell
TTITLE9=Afsoun and Derya Skit
TTITLE10=Rhythmus meines Lebens
TTITLE11=Immer das Schlechte (Stop Stop) feat. Curse, Olli Banjo, Erca
TTITLE11=ndize and Amar
TTITLE12=Techno Pilot feat. Olli Banjo
TTITLE13=Weck mich nicht auf feat. Curse and Moe Mitchell
TTITLE14=Die John Bello Story erzählt von Franky Kubrick and Moe Mitchel
TTITLE14=l
TTITLE15=Tribut
EXTD=
EXTT0=
EXTT1=
EXTT2=
EXTT3=
EXTT4=
EXTT5=
EXTT6=
EXTT7=
EXTT8=
EXTT9=
EXTT10=
EXTT11=
EXTT12=
EXTT13=
EXTT14=
EXTT15=
PLAYORDER=
